{
  "asset": {
    "generator": "Khronos glTF Blender I/O v1.1.46",
    "version": "2.0"
  },
  "scene": 0,
  "scenes": [
    {
      "name": "Scene",
      "nodes": [
        0
      ]
    }
  ],
  "nodes": [
    {
      "mesh": 0,
      "name": "FT3激光制导空地炸弹"
    }
  ],
  "materials": [
    {
      "doubleSided": true,
      "emissiveFactor": [
        0,
        0,
        0
      ],
      "name": "M0.021",
      "pbrMetallicRoughness": {
        "baseColorTexture": {
          "index": 0,
          "texCoord": 0
        },
        "metallicFactor": 1,
        "roughnessFactor": 1
      }
    }
  ],
  "meshes": [
    {
      "name": "EBEntityShape.003",
      "primitives": [
        {
          "attributes": {
            "POSITION": 0,
            "NORMAL": 1,
            "TEXCOORD_0": 2
          },
          "indices": 3,
          "material": 0
        }
      ]
    }
  ],
  "textures": [
    {
      "source": 0
    }
  ],
  "images": [
    {
      "name": "FT-3_1k_c",
      "uri": "dd1_FT3jgzdkdzd_img0.png"
    }
  ],
  "accessors": [
    {
      "bufferView": 0,
      "componentType": 5126,
      "count": 756,
      "max": [
        0.19499854743480682,
        0.19499826431274414,
        1.2488113641738892
      ],
      "min": [
        -0.19499854743480682,
        -0.1949988305568695,
        -1.2084836959838867
      ],
      "type": "VEC3"
    },
    {
      "bufferView": 1,
      "componentType": 5126,
      "count": 756,
      "type": "VEC3"
    },
    {
      "bufferView": 2,
      "componentType": 5126,
      "count": 756,
      "type": "VEC2"
    },
    {
      "bufferView": 3,
      "componentType": 5123,
      "count": 1068,
      "type": "SCALAR"
    }
  ],
  "bufferViews": [
    {
      "buffer": 0,
      "byteLength": 9072,
      "byteOffset": 0
    },
    {
      "buffer": 0,
      "byteLength": 9072,
      "byteOffset": 9072
    },
    {
      "buffer": 0,
      "byteLength": 6048,
      "byteOffset": 18144
    },
    {
      "buffer": 0,
      "byteLength": 2136,
      "byteOffset": 24192
    }
  ],
  "buffers": [
    {
      "uri": "dd1_FT3jgzdkdzd_data.bin",
      "byteLength": 26328
    }
  ]
}